<svg xmlns="http://www.w3.org/2000/svg" xmlns:xlink="http://www.w3.org/1999/xlink" version="1.1" viewBox="0 0 1000 1000" xml:space="preserve">
<rect x="0" y="0" width="100%" height="100%" fill="none" />
<g transform="matrix(0.3458 0 0 0.2999 496.3649 499.9623)" id="758473">
<path style="stroke: none; stroke-width: 6; stroke-dasharray: none; stroke-linecap: butt; stroke-dashoffset: 0; stroke-linejoin: miter; stroke-miterlimit: 4; is-custom-font: none; font-file-url: none; fill-rule: nonzero; opacity: 1;" vector-effect="non-scaling-stroke" transform=" translate(-1441.164, -1665.0967)" d="M 2142 77 c 25 207 94 370 206 483 c 109 110 262 175 457 187 c 44 3 77 39 77 82 v 506 c 0 45 -36 82 -81 82 c -136 13 -263 -3 -390 -43 c -86 -27 -172 -65 -261 -112 v 804 c 0 381 -126 686 -317 900 c -140 157 -314 266 -501 322 s -386 60 -574 5 c -231 -67 -445 -221 -597 -470 C 64 2664 8 2472 1 2277 c -6 -180 28 -364 109 -530 c 82 -167 210 -317 390 -427 c 176 -108 402 -177 682 -187 c 45 -2 83 34 85 79 v 536 c 0 43 -33 78 -75 82 c -39 7 -79 15 -119 24 c -39 9 -77 20 -114 33 c -105 35 -186 85 -234 152 c -47 65 -66 151 -50 263 c 21 151 135 265 270 311 c 56 19 115 27 172 21 c 56 -6 110 -25 158 -59 c 122 -87 205 -275 180 -596 V 80 c 0 -45 37 -82 82 -82 h 523 c 44 0 79 34 82 77 z m 89 598 c -125 -126 -206 -298 -242 -510 h -370 v 1809 c 29 385 -85 619 -249 737 c -72 52 -153 81 -236 90 c -81 9 -165 -2 -243 -29 c -189 -65 -348 -227 -379 -444 c -22 -157 8 -283 80 -382 c 70 -97 179 -165 316 -211 c 41 -14 84 -26 128 -37 c 23 -6 45 -11 68 -15 v -378 c -210 18 -382 75 -517 158 c -151 93 -259 218 -328 359 c -69 142 -99 299 -93 452 c 6 167 53 331 136 466 c 129 211 309 342 503 397 c 157 45 324 42 482 -5 c 158 -48 306 -140 425 -274 c 166 -186 275 -453 275 -791 v -945 c 0 -14 4 -29 12 -42 c 23 -39 74 -52 113 -28 c 124 74 238 131 350 166 c 85 27 170 40 257 40 V 905 c -201 -26 -363 -104 -486 -228 z" stroke-linecap="round"/>
</g>
</svg>